<svg width="50" height="51" viewBox="0 0 50 51" fill="none"
    xmlns="http://www.w3.org/2000/svg">
    <path
        d="M25 16.0981C23.1458 16.0981 21.3332 16.648 19.7915 17.6781C18.2498 18.7083 17.0482 20.1724 16.3386 21.8855C15.6291 23.5985 15.4434 25.4835 15.8051 27.3021C16.1669 29.1207 17.0598 30.7912 18.3709 32.1023C19.682 33.4134 21.3525 34.3063 23.171 34.668C24.9896 35.0297 26.8746 34.8441 28.5877 34.1345C30.3007 33.4249 31.7649 32.2233 32.795 30.6816C33.8252 29.1399 34.375 27.3273 34.375 25.4731C34.3724 22.9875 33.3839 20.6045 31.6263 18.8469C29.8687 17.0893 27.4856 16.1007 25 16.0981ZM25 30.1606C24.0729 30.1606 23.1666 29.8857 22.3958 29.3707C21.6249 28.8556 21.0241 28.1235 20.6693 27.267C20.3145 26.4104 20.2217 25.4679 20.4026 24.5587C20.5834 23.6494 21.0299 22.8141 21.6854 22.1586C22.341 21.503 23.1762 21.0566 24.0855 20.8757C24.9948 20.6948 25.9373 20.7877 26.7938 21.1425C27.6504 21.4972 28.3824 22.0981 28.8975 22.8689C29.4126 23.6398 29.6875 24.546 29.6875 25.4731C29.6875 26.7163 29.1936 27.9086 28.3146 28.7877C27.4355 29.6668 26.2432 30.1606 25 30.1606ZM34.375 4.37939H15.625C12.5181 4.38301 9.5395 5.61883 7.34259 7.81573C5.14568 10.0126 3.90987 12.9912 3.90625 16.0981V34.8481C3.90987 37.955 5.14568 40.9336 7.34259 43.1306C9.5395 45.3275 12.5181 46.5633 15.625 46.5669H34.375C37.4819 46.5633 40.4605 45.3275 42.6574 43.1306C44.8543 40.9336 46.0901 37.955 46.0938 34.8481V16.0981C46.0901 12.9912 44.8543 10.0126 42.6574 7.81573C40.4605 5.61883 37.4819 4.38301 34.375 4.37939ZM41.4062 34.8481C41.4062 36.7129 40.6655 38.5014 39.3468 39.82C38.0282 41.1386 36.2398 41.8794 34.375 41.8794H15.625C13.7602 41.8794 11.9718 41.1386 10.6532 39.82C9.33454 38.5014 8.59375 36.7129 8.59375 34.8481V16.0981C8.59375 14.2333 9.33454 12.4449 10.6532 11.1263C11.9718 9.80768 13.7602 9.06689 15.625 9.06689H34.375C36.2398 9.06689 38.0282 9.80768 39.3468 11.1263C40.6655 12.4449 41.4062 14.2333 41.4062 16.0981V34.8481ZM38.2812 15.3169C38.2812 15.935 38.098 16.5391 37.7546 17.0531C37.4112 17.567 36.9232 17.9675 36.3521 18.204C35.7811 18.4405 35.1528 18.5024 34.5466 18.3818C33.9404 18.2613 33.3836 17.9636 32.9465 17.5266C32.5095 17.0896 32.2119 16.5327 32.0913 15.9266C31.9707 15.3204 32.0326 14.692 32.2691 14.121C32.5056 13.55 32.9062 13.0619 33.4201 12.7186C33.934 12.3752 34.5382 12.1919 35.1562 12.1919C35.9851 12.1919 36.7799 12.5211 37.366 13.1072C37.952 13.6932 38.2812 14.4881 38.2812 15.3169Z"
        fill="black" />
</svg>