<svg width="50" height="51" viewBox="0 0 50 51" fill="none"
    xmlns="http://www.w3.org/2000/svg">
    <path
        d="M46.7754 4.99659C46.4256 4.69493 46.0001 4.49441 45.5448 4.41663C45.0895 4.33885 44.6216 4.38675 44.1915 4.55518L4.60942 20.0454C3.891 20.3252 3.28288 20.8308 2.87656 21.486C2.47025 22.1412 2.28773 22.9107 2.35646 23.6786C2.42519 24.4465 2.74145 25.1714 3.25766 25.744C3.77387 26.3167 4.46211 26.7062 5.2188 26.854L14.8438 28.7427V39.5356C14.8438 40.3144 15.0765 41.0753 15.5121 41.7208C15.9477 42.3663 16.5663 42.8669 17.2884 43.1582C18.0106 43.4496 18.8033 43.5185 19.5649 43.3561C20.3265 43.1936 21.0221 42.8073 21.5626 42.2466L25.9903 37.6548L33.2715 44.0278C33.7795 44.4745 34.3946 44.7817 35.0569 44.9192C35.7192 45.0567 36.4058 45.0199 37.0496 44.8124C37.6933 44.6049 38.2722 44.2338 38.7295 43.7354C39.1868 43.237 39.5068 42.6285 39.6583 41.9692L47.5919 7.48682C47.6951 7.03674 47.6736 6.56703 47.5298 6.12824C47.3859 5.68945 47.1251 5.29819 46.7754 4.99659ZM28.7911 15.6138L16.6446 24.3189L9.91997 23.0005L28.7911 15.6138ZM19.5313 37.5942V31.9868L22.461 34.5552L19.5313 37.5942ZM35.3829 39.6489L20.9532 26.9985L41.7168 12.1196L35.3829 39.6489Z"
        fill="black" />
</svg>