<svg width="50" height="51" viewBox="0 0 50 51" fill="none"
    xmlns="http://www.w3.org/2000/svg">
    <path
        d="M33.2988 23.5024L22.3613 16.4712C22.0073 16.2436 21.5986 16.1155 21.178 16.1004C20.7574 16.0852 20.3405 16.1836 19.9711 16.3852C19.6016 16.5868 19.2933 16.8842 19.0784 17.2461C18.8636 17.608 18.7501 18.021 18.75 18.4419V32.5044C18.7501 32.9253 18.8636 33.3383 19.0784 33.7002C19.2933 34.0621 19.6016 34.3595 19.9711 34.5611C20.3405 34.7627 20.7574 34.8611 21.178 34.8459C21.5986 34.8308 22.0073 34.7027 22.3613 34.4751L33.2988 27.4438C33.6286 27.2316 33.8998 26.9399 34.0877 26.5956C34.2755 26.2513 34.3739 25.8654 34.3739 25.4731C34.3739 25.0809 34.2755 24.695 34.0877 24.3507C33.8998 24.0064 33.6286 23.7147 33.2988 23.5024ZM23.4375 28.2075V22.7388L27.6973 25.4731L23.4375 28.2075ZM46.5254 13.8521C46.3096 13.0116 45.8974 12.2344 45.3225 11.5845C44.7476 10.9346 44.0266 10.4305 43.2188 10.1138C36.4062 7.48682 25.6426 7.5044 25 7.5044C24.3574 7.5044 13.5938 7.48682 6.78125 10.1177C5.97343 10.4344 5.2524 10.9385 4.67752 11.5884C4.10264 12.2383 3.69035 13.0155 3.47461 13.856C2.95898 15.8481 2.34375 19.481 2.34375 25.4731C2.34375 31.4653 2.95898 35.0981 3.47461 37.0903C3.69035 37.9308 4.10264 38.708 4.67752 39.3579C5.2524 40.0078 5.97343 40.5119 6.78125 40.8286C13.3223 43.354 23.5078 43.4419 24.877 43.4419H25.123C26.4902 43.4419 36.6777 43.354 43.2188 40.8286C44.0266 40.5119 44.7476 40.0078 45.3225 39.3579C45.8974 38.708 46.3096 37.9308 46.5254 37.0903C47.041 35.0981 47.6562 31.4653 47.6562 25.4731C47.6562 19.481 47.041 15.8481 46.5254 13.856V13.8521ZM41.9922 35.9146C41.964 36.0344 41.9079 36.1458 41.8285 36.2398C41.7491 36.3338 41.6486 36.4078 41.5352 36.4556C35.6992 38.7075 25.834 38.7544 25.0625 38.7544H24.9863C24.8828 38.7544 14.5098 38.7876 8.4707 36.4556C8.3562 36.4085 8.25452 36.3349 8.17404 36.2409C8.09356 36.1468 8.03659 36.035 8.00781 35.9146C7.64062 34.5005 7.03125 31.2622 7.03125 25.4731C7.03125 19.6841 7.64648 16.4458 8.00781 15.0317C8.03599 14.9119 8.09208 14.8005 8.1715 14.7065C8.25092 14.6125 8.35143 14.5385 8.46484 14.4907C14.5098 12.1587 24.8809 12.1919 24.9844 12.1919H25.0137C25.1191 12.1919 35.4902 12.1587 41.5293 14.4907C41.6438 14.5378 41.7455 14.6114 41.826 14.7054C41.9064 14.7995 41.9634 14.9113 41.9922 15.0317C42.3594 16.4458 42.9688 19.6841 42.9688 25.4731C42.9688 31.2622 42.3535 34.5005 41.9922 35.9146Z"
        fill="black" />
</svg>